<svg width="561" height="587" viewBox="0 0 561 587" fill="none" xmlns="http://www.w3.org/2000/svg">
<g clip-path="url(#clip0_1_225)">
<path opacity="0.18" d="M199.87 104.487C156.612 130.713 102.059 136.849 63.4921 169.576C49.8711 181.106 38.8832 195.564 30.0236 211.072C1.21759 261.544 -4.68221 324.456 14.2348 379.372C33.1517 434.287 76.5984 480.237 130.36 502.237C156.097 512.757 183.646 517.942 211.195 521.555C261.987 528.219 313.32 529.764 364.421 526.166C396.732 523.9 430.844 518.754 455.7 498.001C472.261 484.146 483.061 464.65 491.396 444.748C513.961 390.627 520.938 331.277 511.54 273.4C505.799 238.396 493.9 204.125 474.33 174.554C441.396 124.775 389.604 92.1165 336.447 67.2961C315.59 57.5579 288.932 40.5756 265.699 50.4127C241.258 60.7446 223.163 90.3648 199.87 104.487Z" fill="#688EFD"/>
<path opacity="0.12" d="M17.2143 524.345C12.6509 525.216 7.85979 526.226 4.40504 529.294C-2.19759 535.232 -0.851323 546.563 4.94948 553.263C10.7503 559.963 19.5703 563.08 28.0537 565.633C98.5741 586.861 173.48 587.02 247.118 586.99C269.619 586.99 292.703 586.871 313.709 578.835C328.28 573.264 341.208 564.1 355.562 558.053C409.482 535.192 472.548 558.914 529.556 545.464C536.238 543.891 543.672 541.021 545.999 534.578C550.701 521.515 531.685 513.578 517.816 512.895C456.963 509.886 395.992 510.174 335.17 513.756C286.576 516.616 242.307 502.197 193.535 504.166C134.344 506.529 75.4087 513.274 17.2143 524.345Z" fill="#23293A"/>
<path d="M294.663 512.786H278.538C273.024 512.786 267.737 510.597 263.839 506.699C259.94 502.802 257.75 497.516 257.75 492.004V20.8321C257.75 15.3202 259.94 10.0341 263.839 6.13657C267.737 2.23907 273.024 0.0494843 278.538 0.0494843H294.663C291.929 0.0494765 289.222 0.58867 286.697 1.63619C284.171 2.6837 281.877 4.21897 279.946 6.15406C278.015 8.08914 276.485 10.386 275.443 12.9132C274.402 15.4404 273.869 18.1482 273.875 20.8816V491.964C273.87 494.697 274.404 497.403 275.446 499.929C276.489 502.455 278.019 504.751 279.95 506.685C281.881 508.619 284.174 510.154 286.699 511.201C289.224 512.247 291.93 512.786 294.663 512.786Z" fill="#688EFD"/>
<path d="M294.663 512.786H278.538C273.024 512.786 267.737 510.597 263.839 506.699C259.94 502.802 257.75 497.516 257.75 492.004V20.8321C257.75 15.3202 259.94 10.0341 263.839 6.13657C267.737 2.23907 273.024 0.0494843 278.538 0.0494843H294.663C291.929 0.0494765 289.222 0.58867 286.697 1.63619C284.171 2.6837 281.877 4.21897 279.946 6.15406C278.015 8.08914 276.485 10.386 275.444 12.9132C274.402 15.4404 273.869 18.1482 273.875 20.8816V491.964C273.87 494.697 274.404 497.403 275.446 499.929C276.489 502.455 278.019 504.751 279.95 506.685C281.881 508.619 284.174 510.154 286.699 511.201C289.224 512.247 291.93 512.786 294.663 512.786Z" fill="url(#paint0_linear_1_225)"/>
<path d="M142.951 162.213C142.951 162.213 97.0992 221.731 101.762 248.501C106.424 275.271 117.699 302.417 117.699 302.417L148.475 171.031L142.951 162.213Z" fill="#688EFD"/>
<path d="M142.951 162.213C142.951 162.213 97.0992 221.731 101.762 248.501C106.424 275.271 117.699 302.417 117.699 302.417L148.475 171.031L142.951 162.213Z" fill="url(#paint1_linear_1_225)"/>
<path d="M539.455 0H294.663C283.155 0 273.826 9.32685 273.826 20.8321V491.954C273.826 503.459 283.155 512.786 294.663 512.786H539.455C550.964 512.786 560.293 503.459 560.293 491.954V20.8321C560.293 9.32685 550.964 0 539.455 0Z" fill="#688EFD"/>
<path opacity="0.18" d="M419.994 57.7856H296.554C294.619 57.7777 292.766 57.0037 291.4 55.633C290.035 54.2623 289.268 52.4066 289.268 50.4721C289.271 48.5392 290.039 46.6861 291.404 45.3175C292.769 43.9489 294.621 43.1763 296.554 43.1685H419.994C421.933 43.1685 423.792 43.9376 425.164 45.307C426.535 46.6764 427.307 48.5341 427.31 50.4721C427.31 52.4117 426.539 54.2719 425.167 55.6435C423.795 57.015 421.934 57.7856 419.994 57.7856ZM419.994 132.276H296.554C294.614 132.276 292.753 131.506 291.381 130.134C290.009 128.763 289.239 126.903 289.239 124.963C289.241 123.025 290.013 121.167 291.385 119.798C292.756 118.428 294.615 117.659 296.554 117.659H419.994C421.933 117.659 423.792 118.428 425.164 119.798C426.535 121.167 427.307 123.025 427.31 124.963C427.31 126.903 426.539 128.763 425.167 130.134C423.795 131.506 421.934 132.276 419.994 132.276ZM419.994 206.767H296.554C294.615 206.767 292.756 205.998 291.385 204.629C290.013 203.259 289.241 201.402 289.239 199.464C289.239 197.524 290.009 195.664 291.381 194.292C292.753 192.921 294.614 192.15 296.554 192.15H419.994C421.934 192.15 423.795 192.921 425.167 194.292C426.539 195.664 427.31 197.524 427.31 199.464C427.307 201.402 426.535 203.259 425.164 204.629C423.792 205.998 421.933 206.767 419.994 206.767ZM419.994 281.258H296.554C294.615 281.258 292.756 280.489 291.385 279.119C290.013 277.75 289.241 275.892 289.239 273.954C289.239 272.015 290.009 270.155 291.381 268.783C292.753 267.411 294.614 266.641 296.554 266.641H419.994C421.934 266.641 423.795 267.411 425.167 268.783C426.539 270.155 427.31 272.015 427.31 273.954C427.307 275.892 426.535 277.75 425.164 279.119C423.792 280.489 421.933 281.258 419.994 281.258ZM419.994 355.749H296.554C294.615 355.749 292.756 354.98 291.385 353.61C290.013 352.241 289.241 350.383 289.239 348.445C289.239 346.506 290.009 344.645 291.381 343.274C292.753 341.902 294.614 341.132 296.554 341.132H419.994C421.934 341.132 423.795 341.902 425.167 343.274C426.539 344.645 427.31 346.506 427.31 348.445C427.307 350.383 426.535 352.241 425.164 353.61C423.792 354.98 421.933 355.749 419.994 355.749ZM419.994 430.24H296.554C295.594 430.241 294.643 430.053 293.755 429.687C292.868 429.32 292.061 428.782 291.382 428.104C290.702 427.426 290.163 426.62 289.796 425.733C289.428 424.847 289.239 423.896 289.239 422.936C289.246 421.002 290.021 419.149 291.392 417.784C292.763 416.419 294.619 415.652 296.554 415.652H419.994C421.934 415.652 423.795 416.423 425.167 417.794C426.539 419.166 427.31 421.026 427.31 422.966C427.302 424.899 426.527 426.751 425.156 428.115C423.785 429.478 421.928 430.242 419.994 430.24Z" fill="white"/>
<path d="M121.579 319.082C130.261 302.407 172.5 338.341 177.835 356.165C183.171 373.988 148.475 436.702 130.459 456.05C112.443 475.397 79.083 492.736 57.721 498.743C57.721 498.743 50.2077 488.718 51.7222 484.601C53.2368 480.484 97.4259 448.261 101.435 428.805C105.444 409.348 112.908 335.768 121.579 319.082Z" fill="#23293A"/>
<path d="M325.449 163.856C325.449 163.856 320.113 148.358 321.004 146.656C321.895 144.954 327.082 141.025 329.527 143.321C331.972 145.617 336.942 159.848 336.942 159.848L389.05 142.034C389.05 142.034 394.871 141.134 394.257 147.497C393.643 153.861 337.575 176.157 337.575 176.157C337.575 176.157 333.012 180.829 325.449 163.856Z" fill="#001F79"/>
<path d="M196.574 75.9654C196.574 75.9654 212.828 104.329 209.611 121.489C206.394 138.65 197.198 134.83 193.941 143.727C191.896 149.549 190.583 155.602 190.031 161.748C190.031 161.748 180.587 169.408 163.69 148.556C165.197 140.071 164.288 131.333 161.066 123.34C155.711 110.564 158.612 64.1985 196.574 75.9654Z" fill="url(#paint2_linear_1_225)"/>
<path d="M150.603 61.3582C125.717 85.1097 122.599 69.79 104.415 74.1049C90.7242 77.3509 83.9731 89.1673 88.487 113.899C93.001 138.63 72.1636 126.22 60.958 148.982C40.8531 189.706 77.4002 195.495 105.573 194.317C133.745 193.14 131.142 141.629 151.94 139.639C172.737 137.65 176.994 140.758 185.428 114.047C190.377 98.3315 186.853 91.4732 193.585 86.139C202.177 79.3302 205.176 64.5844 196.208 58.2903C186.289 51.3726 166.442 46.2166 150.603 61.3582Z" fill="#3D4356"/>
<path d="M148.841 158.344C148.841 158.344 146.762 148.853 153.593 145.597C160.423 142.341 179.954 140.768 182.656 145.597C185.359 150.427 188.348 161.431 191.258 161.61C194.169 161.788 206.107 180.858 206.107 180.858C206.107 180.858 208.601 233.616 208.74 254.092C208.968 286.632 189.457 337.44 162.531 333.333C135.606 329.226 115.957 321.715 116.432 307.751C116.907 293.787 139.625 188.647 138.002 176.801C136.26 164.004 148.386 157.849 148.841 158.344Z" fill="#688EFD"/>
<path d="M208.75 254.063C208.978 286.602 189.467 337.411 162.541 333.304C135.616 329.197 115.967 321.685 116.442 307.721C116.917 293.757 139.635 188.617 138.012 176.771C136.26 164.005 148.386 157.849 148.841 158.294C148.841 158.294 146.762 148.804 153.593 145.548C160.423 142.292 179.954 140.718 182.656 145.548C185.161 150.041 187.932 159.818 190.645 161.382C190.832 161.492 191.042 161.56 191.258 161.58C194.169 161.807 206.107 180.829 206.107 180.829C206.107 180.829 208.611 233.557 208.75 254.063Z" fill="url(#paint3_linear_1_225)"/>
<path d="M173.024 174.752C173.024 174.752 183.398 154.296 198.079 166.746C212.759 179.196 230.825 225.135 243.386 225.412C255.948 225.689 307.512 184.084 312.075 187.806C316.639 191.527 324.4 200.958 320.183 208.964C315.966 216.97 258.245 267.512 233.378 262.781C208.512 258.051 155.543 224.116 173.024 174.752Z" fill="#688EFD"/>
<path d="M173.024 174.752C173.024 174.752 183.398 154.296 198.079 166.746C212.759 179.196 230.825 225.135 243.386 225.412C255.948 225.689 307.512 184.084 312.075 187.806C316.639 191.527 324.4 200.958 320.183 208.964C315.966 216.97 258.245 267.512 233.378 262.781C208.512 258.051 155.543 224.116 173.024 174.752Z" fill="url(#paint4_linear_1_225)"/>
<path d="M313.729 189.32C313.729 189.32 324.271 169.794 325.083 166.261C325.894 162.728 328.567 168.042 328.567 168.042C328.567 168.042 337.536 160.927 339.09 157.809C340.644 154.692 353.661 149.892 359.561 150.654C365.461 151.416 355.601 155.048 355.601 155.048C355.601 155.048 350.929 157.186 348.474 168.903C346.019 180.621 343.525 190.676 332.725 195.624C321.925 200.572 321.192 201.611 321.192 201.611C321.192 201.611 318.609 191.299 313.729 189.32Z" fill="url(#paint5_linear_1_225)"/>
<path d="M121.579 319.082C121.579 319.082 108.661 348.643 132.686 376.215C156.711 403.786 174.618 425.361 169.55 468.054C164.482 510.748 176.628 532.767 176.628 532.767H190.793C190.793 532.767 212.769 453.655 208.978 420.155C205.186 386.656 188.655 319.162 188.655 319.162C188.655 319.162 156.275 303.743 121.579 319.082Z" fill="#3D4356"/>
<path d="M176.628 532.767V550.779H215.65C215.65 550.779 192.288 546.553 191.625 541.773C190.961 536.993 190.793 532.767 190.793 532.767H176.628Z" fill="url(#paint6_linear_1_225)"/>
<path d="M179.528 545.296C177.756 544.92 175.569 544.485 174.44 545.9C174.078 546.428 173.847 547.036 173.767 547.671C173.419 549.427 173.293 551.219 173.391 553.006C173.46 554.332 173.767 555.836 174.915 556.499C175.64 556.828 176.44 556.958 177.232 556.875L217.699 556.133C219.243 556.133 221.025 555.955 221.896 554.688C222.294 554.061 222.472 553.319 222.401 552.58C222.299 551.573 221.98 550.6 221.468 549.727C220.955 548.855 220.261 548.103 219.431 547.523C217.754 546.378 215.892 545.531 213.927 545.019C208.978 543.495 200.86 540.645 195.931 542.733C190.486 544.999 185.487 546.523 179.528 545.296Z" fill="#091740"/>
<path d="M51.3163 487.303L35.2206 495.497L54.7513 529.264C54.7513 529.264 46.7133 506.937 50.5244 503.959C54.3355 500.98 57.9091 498.733 57.9091 498.733L51.3163 487.303Z" fill="url(#paint7_linear_1_225)"/>
<path d="M41.4471 495.25C40.8829 493.528 40.1701 491.41 38.3784 491.153C37.7399 491.099 37.0979 491.201 36.5075 491.449C34.8122 492.027 33.196 492.815 31.6966 493.795C30.5879 494.517 29.4396 495.537 29.4396 496.863C29.5199 497.657 29.8104 498.415 30.2811 499.06C37.2433 510.612 44.2089 522.158 51.1778 533.698C51.9697 535.014 52.9992 536.488 54.5336 536.607C55.2748 536.634 56.0045 536.418 56.6124 535.993C57.4314 535.392 58.1122 534.623 58.6091 533.737C59.1059 532.851 59.4073 531.869 59.493 530.857C59.641 528.832 59.4401 526.797 58.899 524.84C57.721 519.763 56.1372 511.341 51.8707 508.125C47.1786 504.582 43.3576 501.029 41.4471 495.25Z" fill="#091740"/>
<path opacity="0.18" d="M505.561 24.1573H463.758C460.609 24.1573 458.056 26.7094 458.056 29.8577V64.9803C458.056 68.1285 460.609 70.6807 463.758 70.6807H505.561C508.71 70.6807 511.263 68.1285 511.263 64.9803V29.8577C511.263 26.7094 508.71 24.1573 505.561 24.1573Z" fill="white"/>
<path opacity="0.18" d="M505.561 105.012H463.758C460.609 105.012 458.056 107.564 458.056 110.712V145.835C458.056 148.983 460.609 151.535 463.758 151.535H505.561C508.71 151.535 511.263 148.983 511.263 145.835V110.712C511.263 107.564 508.71 105.012 505.561 105.012Z" fill="white"/>
<path opacity="0.18" d="M505.561 178.384H463.758C460.609 178.384 458.056 180.936 458.056 184.084V219.207C458.056 222.355 460.609 224.907 463.758 224.907H505.561C508.71 224.907 511.263 222.355 511.263 219.207V184.084C511.263 180.936 508.71 178.384 505.561 178.384Z" fill="white"/>
<path opacity="0.18" d="M505.561 323.536H463.758C460.609 323.536 458.056 326.088 458.056 329.236V364.359C458.056 367.507 460.609 370.059 463.758 370.059H505.561C508.71 370.059 511.263 367.507 511.263 364.359V329.236C511.263 326.088 508.71 323.536 505.561 323.536Z" fill="white"/>
<path opacity="0.18" d="M505.561 250.688H463.758C460.609 250.688 458.056 253.24 458.056 256.388V291.511C458.056 294.659 460.609 297.211 463.758 297.211H505.561C508.71 297.211 511.263 294.659 511.263 291.511V256.388C511.263 253.24 508.71 250.688 505.561 250.688Z" fill="white"/>
<path opacity="0.18" d="M505.561 399.669H463.758C460.609 399.669 458.056 402.222 458.056 405.37V440.492C458.056 443.641 460.609 446.193 463.758 446.193H505.561C508.71 446.193 511.263 443.641 511.263 440.492V405.37C511.263 402.222 508.71 399.669 505.561 399.669Z" fill="white"/>
<path d="M461.788 40.6251L471.35 56.687C474.32 61.6353 479.537 62.7239 483.288 59.1216L515.668 27.9477C515.668 27.9477 518.638 23.6427 515.48 20.3175C512.322 16.9923 509.63 20.8222 509.63 20.8222L480.923 48.374C479.101 50.0366 476.626 49.4824 475.221 47.1073L467.599 34.2418C466.153 31.8073 463.51 31.5797 461.936 33.7668C461.287 34.7874 460.931 35.9662 460.904 37.1752C460.878 38.3842 461.184 39.5774 461.788 40.6251ZM461.788 120.054L471.35 136.106C474.32 141.055 479.537 142.143 483.288 138.541L515.668 107.367C515.668 107.367 518.638 103.072 515.48 99.7367C512.322 96.4016 509.63 100.241 509.63 100.241L480.923 127.803C479.101 129.456 476.626 128.912 475.221 126.536L467.599 113.671C466.153 111.227 463.51 111.009 461.936 113.196C461.287 114.217 460.931 115.395 460.904 116.604C460.878 117.813 461.184 119.007 461.788 120.054ZM461.788 271.263L471.35 287.325C474.32 292.273 479.537 293.361 483.288 289.759L515.668 258.585C515.668 258.585 518.638 254.28 515.48 250.955C512.322 247.63 509.63 251.46 509.63 251.46L480.923 279.012C479.101 280.674 476.626 280.12 475.221 277.745L467.599 264.879C466.153 262.445 463.51 262.217 461.936 264.404C461.287 265.425 460.931 266.604 460.904 267.813C460.878 269.022 461.184 270.215 461.788 271.263ZM461.788 344.665L471.35 360.717C474.32 365.665 479.537 366.754 483.288 363.151L515.668 331.987C515.668 331.987 518.638 327.682 515.48 324.347C512.322 321.012 509.63 324.852 509.63 324.852L480.923 352.414C479.101 354.066 476.626 353.522 475.221 351.147L467.599 338.282C466.153 335.837 463.51 335.619 461.936 337.807C461.287 338.827 460.931 340.006 460.904 341.215C460.878 342.424 461.184 343.617 461.788 344.665ZM461.788 416.147L471.35 432.209C474.32 437.157 479.537 438.246 483.288 434.644L515.668 403.47C515.668 403.47 518.638 399.165 515.48 395.84C512.322 392.514 509.63 396.344 509.63 396.344L480.923 423.896C479.101 425.559 476.626 425.004 475.221 422.629L467.599 409.764C466.153 407.329 463.51 407.102 461.936 409.289C461.287 410.309 460.931 411.488 460.904 412.697C460.878 413.906 461.184 415.099 461.788 416.147Z" fill="#001F79"/>
<path d="M190.635 161.362C165.996 153.217 148.831 158.294 148.831 158.294C148.831 158.294 146.753 148.804 153.583 145.548C160.413 142.292 179.944 140.718 182.646 145.548C185.161 150.041 187.932 159.818 190.635 161.362Z" fill="url(#paint8_linear_1_225)"/>
</g>
<defs>
<linearGradient id="paint0_linear_1_225" x1="282.002" y1="-214.684" x2="274.156" y2="435.049" gradientUnits="userSpaceOnUse">
<stop/>
<stop offset="0.98" stop-opacity="0"/>
</linearGradient>
<linearGradient id="paint1_linear_1_225" x1="183.032" y1="224.789" x2="99.0007" y2="236.799" gradientUnits="userSpaceOnUse">
<stop/>
<stop offset="0.98" stop-opacity="0"/>
</linearGradient>
<linearGradient id="paint2_linear_1_225" x1="159.017" y1="118.609" x2="210.066" y2="118.609" gradientUnits="userSpaceOnUse">
<stop stop-color="#C4CEEC"/>
<stop offset="0.42" stop-color="#D1D9EF"/>
<stop offset="1" stop-color="#C9D3F2"/>
</linearGradient>
<linearGradient id="paint3_linear_1_225" x1="243.446" y1="253.073" x2="161.672" y2="236.567" gradientUnits="userSpaceOnUse">
<stop/>
<stop offset="0.98" stop-opacity="0"/>
</linearGradient>
<linearGradient id="paint4_linear_1_225" x1="243.307" y1="345.496" x2="245.87" y2="172.456" gradientUnits="userSpaceOnUse">
<stop/>
<stop offset="0.98" stop-opacity="0"/>
</linearGradient>
<linearGradient id="paint5_linear_1_225" x1="313.729" y1="176.128" x2="361.432" y2="176.128" gradientUnits="userSpaceOnUse">
<stop stop-color="#C4CEEC"/>
<stop offset="0.42" stop-color="#D1D9EF"/>
<stop offset="1" stop-color="#C9D3F2"/>
</linearGradient>
<linearGradient id="paint6_linear_1_225" x1="176.628" y1="541.773" x2="215.65" y2="541.773" gradientUnits="userSpaceOnUse">
<stop stop-color="#C4CEEC"/>
<stop offset="0.42" stop-color="#D1D9EF"/>
<stop offset="1" stop-color="#C9D3F2"/>
</linearGradient>
<linearGradient id="paint7_linear_1_225" x1="35.2404" y1="508.283" x2="57.9289" y2="508.283" gradientUnits="userSpaceOnUse">
<stop stop-color="#C4CEEC"/>
<stop offset="0.42" stop-color="#D1D9EF"/>
<stop offset="1" stop-color="#C9D3F2"/>
</linearGradient>
<linearGradient id="paint8_linear_1_225" x1="250.831" y1="136.789" x2="155.317" y2="156.661" gradientUnits="userSpaceOnUse">
<stop/>
<stop offset="0.98" stop-opacity="0"/>
</linearGradient>
<clipPath id="clip0_1_225">
<rect width="560.293" height="587" fill="white"/>
</clipPath>
</defs>
</svg>
