<svg width="821" height="924" viewBox="0 0 821 924" fill="none" xmlns="http://www.w3.org/2000/svg">
<path d="M317.583 463.363L445.983 568.872C449.08 571.416 452.963 572.807 456.971 572.807C460.979 572.807 464.863 571.416 467.959 568.872C476.385 561.948 476.385 549.052 467.959 542.128L329.403 428.274C326.073 425.537 321.895 424.041 317.584 424.041C313.274 424.041 309.096 425.537 305.766 428.274L167.208 542.128C158.782 549.052 158.782 561.948 167.208 568.872C170.304 571.416 174.188 572.807 178.196 572.807C182.204 572.807 186.087 571.416 189.184 568.872L317.583 463.363Z" stroke="#CECECE" stroke-width="10.8281" stroke-miterlimit="10" stroke-linecap="round" stroke-linejoin="round"/>
<path d="M317.583 463.363L212.053 550.08L221.178 724.761H413.99L423.114 550.079L317.583 463.363Z" stroke="#CECECE" stroke-width="10.8281" stroke-miterlimit="10" stroke-linecap="round" stroke-linejoin="round"/>
<path d="M317.583 575.808C280.008 575.808 250.494 601.071 251.626 631.283L255.128 724.761H380.037L383.54 631.283C384.673 601.071 355.159 575.808 317.583 575.808ZM298.402 545.177C300.168 549.234 304.854 551.076 308.961 549.427C311.581 548.375 314.503 547.786 317.584 547.786C320.666 547.786 323.588 548.375 326.208 549.427C330.314 551.076 335.001 549.235 336.767 545.177C337.623 543.221 338.065 541.109 338.066 538.974C338.066 529.215 328.896 521.304 317.584 521.304C306.273 521.304 297.103 529.215 297.103 538.974C297.103 541.157 297.562 543.247 298.402 545.177Z" stroke="#CECECE" stroke-width="10.8281" stroke-miterlimit="10" stroke-linecap="round" stroke-linejoin="round"/>
<path d="M296.725 518.226C299.847 515.776 300.691 511.64 298.609 508.988C296.528 506.336 292.31 506.173 289.188 508.623C286.066 511.073 285.223 515.209 287.304 517.861C289.385 520.513 293.604 520.676 296.725 518.226Z" stroke="#CECECE" stroke-width="10.8281" stroke-miterlimit="10" stroke-linecap="round" stroke-linejoin="round"/>
<path d="M317.583 511.473C322.796 511.473 327.021 508.607 327.021 505.071C327.021 501.536 322.796 498.67 317.583 498.67C312.371 498.67 308.146 501.536 308.146 505.071C308.146 508.607 312.371 511.473 317.583 511.473Z" stroke="#CECECE" stroke-width="10.8281" stroke-miterlimit="10" stroke-linecap="round" stroke-linejoin="round"/>
<path d="M345.637 520.346C347.719 517.695 346.875 513.558 343.753 511.108C340.631 508.658 336.413 508.821 334.332 511.473C332.251 514.125 333.094 518.261 336.216 520.711C339.338 523.162 343.556 522.998 345.637 520.346Z" stroke="#CECECE" stroke-width="10.8281" stroke-miterlimit="10" stroke-linecap="round" stroke-linejoin="round"/>
<path d="M70.6741 724.62H81.3001" stroke="#00134C" stroke-width="10.8281" stroke-miterlimit="10" stroke-linecap="round" stroke-linejoin="round"/>
<path d="M354.032 578.28C356.706 562.183 363.061 543.765 370.695 528.303C360.2 545.452 350.69 569.962 347.256 590.641C342.022 622.154 343.716 651.098 351.769 669.474L356.592 652.081C350.253 633.678 349.254 607.052 354.032 578.28Z" fill="#D1D1D1"/>
<path d="M132.489 419.702C106.058 417.883 105.134 448.375 109.754 468.703C111.602 479.791 99.5905 486.259 94.1537 494.723C91.8039 498.431 89.7545 502.784 88.6023 508.279C85.5688 522.98 94.1962 535.474 95.6136 548.879C95.9675 552.23 95.8714 555.639 95.0296 559.154C94.0465 562.95 92.1985 566.646 90.3505 570.342C75.5665 586.974 51.5425 606.378 68.1745 628.554C71.1414 632.337 74.4867 635.808 78.1583 638.913C106.982 663.666 150.41 661.818 183.674 646.11C195.686 639.642 207.698 630.402 210.47 616.542C212.318 601.758 205.85 587.898 196.004 578.129C193.088 574.877 189.892 571.886 186.454 569.191C184.013 565.532 182.581 562.017 181.867 558.599C180.08 550.054 182.77 542.117 185.338 534.091C186.621 530.078 187.875 526.042 188.523 521.897C191.99 501.043 171.662 488.107 160.574 473.323C155.954 466.855 157.802 458.539 159.65 451.147C163.346 433.591 149.486 418.807 132.916 419.704" fill="#0137D3"/>
<path d="M136.645 507.189C132.44 527.216 131.493 546.931 132.069 566.627C132.213 571.551 144.868 653.503 136.807 689.361C136.649 694.573 136.649 697.547 136.649 697.547M150.411 584.665L136.661 604.531" stroke="#00134C" stroke-width="10.8281" stroke-miterlimit="10" stroke-linecap="round" stroke-linejoin="round"/>
<path d="M158.748 727.392H116.201C115.672 727.392 115.213 727.028 115.091 726.513L104.211 680.453H170.739L159.858 726.513C159.799 726.764 159.658 726.986 159.456 727.146C159.254 727.305 159.005 727.392 158.748 727.392Z" fill="#4673F7"/>
<path opacity="0.68" d="M110.886 705.942H164.063M111.668 709.251H163.281" stroke="#4673F7" stroke-width="1.80469" stroke-miterlimit="10"/>
<path d="M361.647 714.24V724.404" stroke="#00134C" stroke-width="10.8281" stroke-miterlimit="10" stroke-linecap="round" stroke-linejoin="round"/>
<path d="M72.3797 560.547C77.8165 560.547 82.224 553.329 82.224 544.424C82.224 535.52 77.8165 528.302 72.3797 528.302C66.9428 528.302 62.5354 535.52 62.5354 544.424C62.5354 553.329 66.9428 560.547 72.3797 560.547Z" fill="#0137D3"/>
<path d="M632.335 616.607L641.48 625.752L632.335 634.897L623.19 625.752L632.335 616.607Z" fill="#0137D3"/>
<path d="M570.68 352.149L576.561 358.03L570.68 363.911L564.799 358.03L570.68 352.149Z" fill="#0137D3"/>
<path d="M106.344 236.788V250.012M106.344 266.787V280.012M87.6275 247.594L99.0805 254.206M113.608 262.593L125.061 269.206M87.6275 269.206L99.0805 262.593M113.608 254.206L125.061 247.594M684.8 293.269V302.447M684.8 314.09V323.268M671.811 300.768L679.759 305.358M689.842 311.179L697.79 315.769M671.811 315.769L679.759 311.179M689.842 305.358L697.79 300.768" stroke="#00134C" stroke-width="5.41406" stroke-miterlimit="10" stroke-linecap="round" stroke-linejoin="round"/>
<path d="M614.027 443.429C621.75 443.429 628.011 437.168 628.011 429.445C628.011 421.721 621.75 415.46 614.027 415.46C606.303 415.46 600.042 421.721 600.042 429.445C600.042 437.168 606.303 443.429 614.027 443.429Z" fill="#4673F7"/>
<path d="M614.027 409.157V420.353M614.027 438.536V449.732M596.456 419.3L606.153 424.899M621.9 433.991L631.597 439.589M596.456 440.196L606.153 433.991M621.9 424.899L631.597 419.3" stroke="#00134C" stroke-width="5.41406" stroke-miterlimit="10" stroke-linecap="round" stroke-linejoin="round"/>
<path d="M405.162 130.197V143.749M411.938 136.973H398.386M718.552 605.333V618.885M725.328 612.108H711.776M243.154 365.919V374.235M247.312 370.077H238.996" stroke="#00134C" stroke-width="7.21875" stroke-miterlimit="10" stroke-linecap="round" stroke-linejoin="round"/>
<path d="M204.524 430.864L211.074 437.414L204.524 443.964L197.974 437.414L204.524 430.864Z" fill="#4673F7"/>
<path d="M0.12384 398.457H24.4472M32.7632 398.457H42.1215M13.6401 410.244H40.6727M528.685 512.907H553.009M561.325 512.907H570.683M542.201 522.845H569.233" stroke="#00134C" stroke-width="7.21875" stroke-miterlimit="10" stroke-linecap="round" stroke-linejoin="round"/>
<path d="M603.36 724.62H641.481M100.704 724.62H177.088" stroke="#00134C" stroke-width="10.8281" stroke-miterlimit="10" stroke-linecap="round" stroke-linejoin="round"/>
<path d="M543.734 225.826C570.141 225.826 591.548 204.418 591.548 178.011C591.548 151.604 570.141 130.197 543.734 130.197C517.327 130.197 495.92 151.604 495.92 178.011C495.92 204.418 517.327 225.826 543.734 225.826Z" fill="#4673F7"/>
<path d="M591.549 187.939C617.957 187.939 639.364 166.532 639.364 140.125C639.364 113.717 617.957 92.3103 591.549 92.3103C565.142 92.3103 543.735 113.717 543.735 140.125C543.735 166.532 565.142 187.939 591.549 187.939Z" fill="#4673F7"/>
<path d="M657.816 200.907C681.914 200.907 701.45 181.372 701.45 157.273C701.45 133.175 681.914 113.639 657.816 113.639C633.717 113.639 614.182 133.175 614.182 157.273C614.182 181.372 633.717 200.907 657.816 200.907Z" fill="#4673F7"/>
<path d="M591.549 252.723C617.848 252.723 639.167 231.404 639.167 205.106C639.167 178.807 617.848 157.488 591.549 157.488C565.251 157.488 543.932 178.807 543.932 205.106C543.932 231.404 565.251 252.723 591.549 252.723Z" fill="#4673F7"/>
<path d="M642.168 236.788C659.666 236.788 673.85 222.603 673.85 205.106C673.85 187.608 659.666 173.424 642.168 173.424C624.67 173.424 610.486 187.608 610.486 205.106C610.486 222.603 624.67 236.788 642.168 236.788Z" fill="#4673F7"/>
<path d="M542.195 302.725C542.195 309.956 540.388 314.267 533.157 314.267C525.927 314.267 520.066 311.505 520.066 304.275C520.066 297.045 523.901 290.628 531.131 290.628C538.36 290.628 542.195 295.495 542.195 302.725ZM568.177 266.787C568.177 277.645 565.462 284.121 554.603 284.121C543.744 284.121 534.941 279.972 534.941 269.113C534.941 258.254 543.744 249.451 554.603 249.451C565.462 249.451 568.177 255.928 568.177 266.787Z" fill="#4673F7"/>
<path d="M559.044 591.538C559.237 594.005 559.339 596.498 559.339 599.014C559.339 650.693 517.763 692.587 466.477 692.587C423.396 692.587 387.172 663.025 376.682 622.935C380.462 671.118 420.46 709.031 469.249 709.031C520.535 709.031 562.111 667.137 562.111 615.458C562.111 607.19 561.042 599.174 559.044 591.538Z" fill="white"/>
<path d="M559.044 591.538C559.237 594.005 559.339 596.498 559.339 599.014C559.339 650.693 517.763 692.587 466.477 692.587C423.396 692.587 387.172 663.025 376.682 622.935C380.462 671.118 420.46 709.031 469.249 709.031C520.535 709.031 562.111 667.137 562.111 615.458C562.111 607.19 561.042 599.174 559.044 591.538Z" stroke="#00134C" stroke-width="10.8281" stroke-miterlimit="10" stroke-linecap="round" stroke-linejoin="round"/>
<path d="M396.687 507.504C381.01 500.519 353.641 552.206 347.257 590.64C342.023 622.153 343.717 651.097 351.77 669.473L396.687 507.504Z" fill="white"/>
<path d="M396.687 507.504C381.01 500.519 353.641 552.206 347.257 590.64C342.023 622.153 343.717 651.097 351.77 669.473L396.687 507.504Z" stroke="#00134C" stroke-width="10.8281" stroke-miterlimit="10" stroke-linecap="round" stroke-linejoin="round"/>
<path d="M445.087 507.504C460.764 500.519 488.134 552.206 494.517 590.64C499.75 622.153 498.056 651.097 490.004 669.473L445.087 507.504Z" fill="white"/>
<path d="M487.741 578.28C485.068 562.183 478.712 543.765 471.077 528.303C481.572 545.452 491.082 569.962 494.517 590.641C499.75 622.154 498.056 651.098 490.004 669.474L485.18 652.081C491.52 633.678 492.519 607.052 487.741 578.28Z" fill="#D1D1D1"/>
<path d="M445.087 507.504C460.764 500.519 488.134 552.206 494.517 590.64C499.75 622.153 498.056 651.097 490.004 669.473L445.087 507.504Z" stroke="#00134C" stroke-width="10.8281" stroke-miterlimit="10" stroke-linecap="round" stroke-linejoin="round"/>
<path d="M492.75 676.368C491.76 661 451.823 494.544 440.968 486.228H401.39C390.535 494.544 350.598 661 349.608 676.368C348.378 695.462 342.093 724.62 378.426 724.62H463.934C500.265 724.62 493.98 695.462 492.75 676.368Z" fill="white"/>
<path d="M354.041 652.828C354.041 652.828 351.205 677.215 364.821 686.211C375.532 693.288 384.942 696.159 402.634 699.433C412.109 701.187 422.488 701.919 422.488 701.919L423.643 723.826L348.425 724.403C348.425 724.403 347.136 693.605 348.968 684.364C350.8 675.123 351.737 659.793 354.041 652.828Z" fill="#D1D1D1"/>
<path d="M489.117 652.828C489.117 652.828 491.952 677.215 478.336 686.211C467.625 693.288 458.215 696.159 440.523 699.433C431.049 701.187 420.669 701.919 420.669 701.919L419.514 723.826L494.733 724.403C494.733 724.403 496.022 693.605 494.189 684.364C492.357 675.123 491.42 659.793 489.117 652.828Z" fill="#D1D1D1"/>
<path d="M454.267 519.777C451.929 519.145 449.709 518.8 447.765 518.8C436.538 518.8 427.49 524.778 427.49 538.688C427.49 552.598 447.765 569.172 458.991 569.172C462.027 569.172 464.903 568.342 467.49 566.865C462.99 549.773 458.418 533.329 454.267 519.777ZM368.78 639.489C381.271 639.489 391.397 627.217 391.397 612.077C391.397 597.535 382.054 585.645 370.247 584.729C365.641 602.842 361.302 620.811 357.801 636.042C361.052 638.235 364.794 639.489 368.78 639.489Z" fill="#4673F7"/>
<path d="M398.591 490.212C398.591 490.212 405.162 495.483 420.255 495.483C432.421 495.483 443.184 490.212 443.184 490.212L442.289 486.591L399.319 486.555L398.591 490.212Z" fill="#D1D1D1"/>
<path d="M492.75 676.368C491.76 661 451.823 494.544 440.968 486.228H401.39C390.535 494.544 350.598 661 349.608 676.368C348.378 695.462 342.093 724.62 378.426 724.62H463.934C500.265 724.62 493.98 695.462 492.75 676.368Z" stroke="#00134C" stroke-width="10.8281" stroke-miterlimit="10" stroke-linecap="round" stroke-linejoin="round"/>
<path d="M490.592 419.701C488.81 401.653 480.008 356.156 470.022 324.237C454.084 273.29 435.471 260.01 424.674 258.677C423.525 258.534 421.18 258.455 421.18 258.455C421.18 258.455 418.834 258.487 417.685 258.629C406.888 259.962 388.275 273.169 372.337 324.117C362.352 356.036 353.549 401.656 351.767 419.705C347.757 460.321 367.305 482.8 392.572 486.011C399.798 486.93 414.028 486.935 421.18 486.935C428.331 486.935 442.561 486.93 449.788 486.011C475.054 482.8 494.602 460.317 490.592 419.701Z" fill="white"/>
<path d="M421.18 456.909C430.836 456.909 438.664 450.764 438.664 443.184C438.664 435.603 430.836 429.459 421.18 429.459C411.523 429.459 403.695 435.603 403.695 443.184C403.695 450.764 411.523 456.909 421.18 456.909Z" fill="#D1D1D1"/>
<path d="M405.162 263.79C405.162 263.79 396.846 295.109 379.444 304.167C383.853 294.175 389.885 282.27 389.885 282.27C389.885 282.27 400.234 265.176 405.162 263.79ZM424.674 258.677C424.674 258.677 447.204 297.515 466.015 312.347C466.015 312.347 461.757 284.81 457.599 276.494C453.441 268.178 433.097 256.105 424.674 258.677Z" fill="#D1D1D1"/>
<path d="M376.804 407.802C413.142 392.149 434.816 361.393 425.216 339.105C418.488 323.486 398.179 316.185 374.126 318.593C373.511 320.429 372.914 322.27 372.336 324.117C363.09 353.672 354.863 394.959 352.28 415.243C360.281 413.808 368.564 411.351 376.804 407.802Z" fill="#4673F7"/>
<path d="M473.203 450.04C462.9 465.057 440.248 475.305 416.087 475.305C393.766 475.305 380.316 462.146 372.434 445.875" stroke="#00134C" stroke-width="10.8281" stroke-miterlimit="10" stroke-linecap="round" stroke-linejoin="round"/>
<path d="M421.18 452.08C433.253 452.08 443.041 447.016 443.041 440.769C443.041 434.522 433.253 429.459 421.18 429.459C409.106 429.459 399.319 434.522 399.319 440.769C399.319 447.016 409.106 452.08 421.18 452.08Z" fill="#001F79"/>
<path d="M541.343 718.772C527.294 705.549 500.346 699.037 473.955 701.02C451.367 702.718 434.679 710.352 428.102 720.497C426.97 722.243 428.364 724.607 430.521 724.607L537.197 724.62C541.479 724.621 543.943 721.219 541.343 718.772Z" fill="white"/>
<path d="M540.594 718.554C540.273 718.679 539.931 718.744 539.585 718.744L432.91 718.757C431.635 718.757 430.528 718.452 429.661 717.964C429.36 718.232 429.055 718.498 428.764 718.771C426.164 721.218 428.628 724.62 432.909 724.619L539.584 724.606C541.742 724.606 543.135 722.242 542.004 720.496C541.567 719.826 541.096 719.178 540.594 718.554Z" fill="#D1D1D1"/>
<path d="M483.615 714.24V724.404M541.343 718.772C527.294 705.549 500.346 699.037 473.955 701.02C451.367 702.718 434.679 710.352 428.102 720.497C426.97 722.243 428.364 724.607 430.521 724.607L537.197 724.62C541.479 724.621 543.943 721.219 541.343 718.772Z" stroke="#00134C" stroke-width="10.8281" stroke-miterlimit="10" stroke-linecap="round" stroke-linejoin="round"/>
<path d="M304.024 718.772C318.072 705.549 345.021 699.037 371.412 701.02C394 702.718 410.688 710.352 417.265 720.497C418.396 722.243 417.003 724.607 414.846 724.607L308.17 724.62C303.888 724.621 301.424 721.219 304.024 718.772Z" fill="white"/>
<path d="M415.855 718.554C415.533 718.679 415.191 718.744 414.845 718.744L308.17 718.757C306.895 718.757 305.788 718.452 304.921 717.964C304.62 718.232 304.315 718.498 304.024 718.771C301.424 721.218 303.888 724.62 308.169 724.619L414.845 724.606C417.002 724.606 418.395 722.242 417.264 720.496C416.827 719.826 416.357 719.178 415.855 718.554Z" fill="#D1D1D1"/>
<path d="M304.024 718.772C318.072 705.549 345.021 699.037 371.412 701.02C394 702.718 410.688 710.352 417.265 720.497C418.396 722.243 417.003 724.607 414.846 724.607L308.17 724.62C303.888 724.621 301.424 721.219 304.024 718.772ZM490.592 419.701C488.81 401.653 480.008 356.156 470.022 324.237C454.084 273.29 435.471 260.01 424.674 258.677C423.525 258.534 421.18 258.455 421.18 258.455C421.18 258.455 418.834 258.487 417.685 258.629C406.888 259.962 388.275 273.169 372.337 324.117C362.352 356.036 353.549 401.656 351.767 419.705C347.757 460.321 367.305 482.8 392.572 486.011C399.798 486.93 414.028 486.935 421.18 486.935C428.331 486.935 442.561 486.93 449.788 486.011C475.054 482.8 494.602 460.317 490.592 419.701Z" stroke="#00134C" stroke-width="10.8281" stroke-miterlimit="10" stroke-linecap="round" stroke-linejoin="round"/>
<path d="M422.992 258.227C422.992 258.227 455.211 251.371 464.123 255.515C473.264 259.764 489.83 292.16 482.99 304.856C472.512 324.302 441.844 254.114 422.992 258.227Z" fill="white"/>
<path d="M422.992 258.227C422.992 258.227 455.211 251.371 464.123 255.515C473.264 259.764 489.83 292.16 482.99 304.856C472.512 324.302 441.844 254.114 422.992 258.227Z" stroke="#00134C" stroke-width="10.8281" stroke-miterlimit="10" stroke-linecap="round" stroke-linejoin="round"/>
<path d="M362.437 264.071L407.089 262.791C407.089 262.791 365.695 307.285 346.596 316.904C327.497 326.521 347.014 263.949 362.437 264.071Z" fill="white"/>
<path d="M362.437 264.071L407.089 262.791C407.089 262.791 365.695 307.285 346.596 316.904C327.497 326.521 347.014 263.949 362.437 264.071Z" stroke="#00134C" stroke-width="10.8281" stroke-miterlimit="10" stroke-linecap="round" stroke-linejoin="round"/>
<path d="M403.473 364.044C406.043 364.044 408.127 361.355 408.127 358.038C408.127 354.721 406.043 352.032 403.473 352.032C400.902 352.032 398.819 354.721 398.819 358.038C398.819 361.355 400.902 364.044 403.473 364.044Z" fill="#001F79"/>
<path d="M442.512 364.044C445.082 364.044 447.166 361.355 447.166 358.038C447.166 354.721 445.082 352.032 442.512 352.032C439.941 352.032 437.858 354.721 437.858 358.038C437.858 361.355 439.941 364.044 442.512 364.044Z" fill="#001F79"/>
<path d="M259.016 724.62H579.336" stroke="#00134C" stroke-width="10.8281" stroke-miterlimit="10" stroke-linecap="round" stroke-linejoin="round"/>
<path d="M513.9 320.59C513.9 325.753 512.609 328.833 507.446 328.833C502.283 328.833 498.096 326.86 498.096 321.697C498.096 316.534 502.282 312.347 507.446 312.347C512.61 312.347 513.9 315.427 513.9 320.59Z" fill="#4673F7"/>
<path d="M640.173 173.732C640.917 172.848 641.472 171.821 641.806 170.714C642.14 169.608 642.246 168.445 642.116 167.297C641.691 163.373 636.393 161.451 634.16 161.052C631.219 160.528 625.047 163.201 625.047 168.25V168.273C625.051 169.478 624.126 170.477 622.921 170.477H580.91C579.719 170.477 578.778 169.503 578.787 168.313C578.795 167.207 578.576 166.044 578.036 164.838C576.807 162.097 573.815 161.694 571.141 161.387C566.497 160.851 561.667 163.187 561.667 168.249C561.667 170.34 562.419 172.252 563.666 173.736C564.086 174.23 564.316 174.857 564.315 175.505C564.315 176.153 564.083 176.779 563.662 177.272C562.919 178.157 562.363 179.184 562.029 180.29C561.695 181.397 561.589 182.559 561.719 183.708C562.144 187.631 565.839 189.233 569.354 189.622C573.982 190.135 578.787 187.805 578.787 182.755V182.732C578.783 181.527 579.708 180.528 580.913 180.528H622.925C623.207 180.529 623.485 180.586 623.745 180.695C624.005 180.805 624.24 180.965 624.438 181.166C624.635 181.367 624.791 181.605 624.895 181.867C625 182.129 625.052 182.409 625.047 182.691C625.038 183.804 625.261 184.975 625.81 186.189C627.049 188.924 631.339 189.643 633.037 189.95C635.982 190.484 642.167 187.809 642.167 182.754C642.17 180.747 641.462 178.803 640.168 177.268C639.749 176.774 639.519 176.147 639.52 175.499C639.521 174.851 639.752 174.225 640.173 173.732Z" fill="#F4F4F6"/>
</svg>
